<svg width="97" height="97" viewBox="0 0 97 97" fill="none" xmlns="http://www.w3.org/2000/svg">
<g clip-path="url(#clip0_3_346)">
<path d="M48.45 96.91C41.91 96.91 35.56 95.63 29.59 93.1C23.82 90.66 18.64 87.17 14.19 82.72C9.74 78.27 6.25 73.09 3.81 67.32C1.28 61.35 0 55 0 48.46C0 41.92 1.28 35.57 3.81 29.6C6.25 23.83 9.74 18.65 14.19 14.2C18.64 9.75 23.82 6.25 29.59 3.81C35.56 1.28 41.91 0 48.45 0C54.99 0 61.34 1.28 67.31 3.81C73.08 6.25 78.26 9.74 82.71 14.19C87.16 18.64 90.65 23.82 93.09 29.59C95.62 35.56 96.9 41.91 96.9 48.45C96.9 54.99 95.62 61.34 93.09 67.31C90.65 73.08 87.16 78.26 82.71 82.71C78.26 87.16 73.08 90.65 67.31 93.09C61.34 95.62 54.99 96.9 48.45 96.9V96.91Z" fill="#FF49C5"/>
<path d="M48.45 95.64C42.08 95.64 35.9 94.39 30.08 91.93C24.46 89.55 19.41 86.15 15.08 81.82C10.75 77.49 7.33999 72.44 4.96999 66.82C2.50999 61 1.25999 54.82 1.25999 48.45C1.25999 42.08 2.50999 35.9 4.96999 30.08C7.34999 24.46 10.75 19.41 15.08 15.08C19.41 10.75 24.46 7.34001 30.08 4.97001C35.9 2.51001 42.08 1.26001 48.45 1.26001C54.82 1.26001 61 2.51001 66.82 4.97001C72.44 7.35001 77.49 10.75 81.82 15.08C86.15 19.41 89.56 24.46 91.93 30.08C94.39 35.9 95.64 42.08 95.64 48.45C95.64 54.82 94.39 61 91.93 66.82C89.55 72.44 86.15 77.49 81.82 81.82C77.49 86.15 72.44 89.56 66.82 91.93C61 94.39 54.82 95.64 48.45 95.64ZM48.45 2.77001C23.27 2.77001 2.76999 23.27 2.76999 48.45C2.76999 73.63 23.26 94.13 48.45 94.13C73.64 94.13 94.13 73.64 94.13 48.45C94.13 23.26 73.64 2.77001 48.45 2.77001Z" fill="black"/>
<path d="M18.84 19.14C19.55 18.33 20.77 18.23 21.59 18.94L27.25 23.86L25.9 25.41L23.6 23.41L20.09 27.45L22.39 29.45L21.06 30.98L15.4 26.06C14.59 25.35 14.5 24.13 15.21 23.32L18.85 19.13L18.84 19.14ZM22.06 22.07L20.32 20.56L16.81 24.6L18.55 26.11L22.06 22.07Z" fill="black"/>
<path d="M25.71 13.35L27.52 12.43L30.88 19.03L37.48 15.67L38.41 17.49L30 21.78L25.71 13.36V13.35Z" fill="black"/>
<path d="M39.8 7.77L41.81 7.38L43.6 16.65L41.59 17.04L39.8 7.77Z" fill="black"/>
<path d="M56.13 9.40999L49.49 8.86999L49.36 10.52L54.71 10.95L54.55 12.99L49.2 12.56L49.07 14.21L55.71 14.75L55.55 16.79L46.86 16.09L47.62 6.67999L56.31 7.37999L56.15 9.41999L56.13 9.40999Z" fill="black"/>
<path d="M69.51 12.49L71.35 13.42L67.1 21.85L65.23 20.91L63.33 12.88L60.49 18.52L58.67 17.61L62.92 9.17999L64.79 10.12L66.68 18.12L69.51 12.5V12.49Z" fill="black"/>
<path d="M80.9 26.73L79.55 25.17L80.14 24.66L76.64 20.61L75.39 21.69L78.97 25.83C79.66 26.63 79.58 27.86 78.77 28.57L77.36 29.79C76.55 30.49 75.32 30.39 74.62 29.59L70.98 25.38C70.28 24.57 70.37 23.35 71.18 22.64L71.84 22.07L73.17 23.61L72.58 24.12L76.08 28.17L77.33 27.09L73.77 22.97C73.07 22.16 73.16 20.94 73.97 20.23L75.38 19.01C76.19 18.31 77.41 18.4 78.12 19.21L81.76 23.42C82.45 24.22 82.37 25.45 81.56 26.16L80.9 26.73Z" fill="black"/>
<path d="M17.65 66.73L17.09 65.59L17.52 65.38L16.07 62.42L15.16 62.87L16.64 65.89C16.93 66.48 16.69 67.2 16.09 67.49L15.06 67.99C14.47 68.28 13.75 68.03 13.46 67.44L11.96 64.37C11.67 63.78 11.91 63.06 12.51 62.77L13 62.53L13.55 63.65L13.12 63.86L14.57 66.82L15.48 66.37L14.01 63.36C13.72 62.77 13.96 62.05 14.56 61.76L15.59 61.26C16.18 60.97 16.9 61.21 17.19 61.81L18.69 64.88C18.98 65.47 18.74 66.19 18.14 66.48L17.65 66.72V66.73Z" fill="black"/>
<path d="M23 71.01C23.41 71.53 23.33 72.29 22.81 72.69L21.64 73.62C21.13 74.03 20.37 73.94 19.96 73.42L17.86 70.8C17.86 70.8 17.86 70.83 17.84 70.85C17.84 70.85 17.83 70.84 17.84 70.83L16.38 71.99L15.6 71.01L20.14 67.4L23.01 71.01H23ZM18.85 70.02L20.9 72.6L21.98 71.74L19.93 69.16L18.85 70.02Z" fill="black"/>
<path d="M28.35 75.87C28.86 76.29 28.94 77.04 28.53 77.56L25.61 81.14L24.63 80.34L25.81 78.89L23.26 76.81L22.08 78.26L21.11 77.47L24.03 73.89C24.45 73.38 25.2 73.3 25.71 73.72L28.35 75.88V75.87ZM26.61 77.9L27.51 76.8L24.96 74.72L24.06 75.82L26.61 77.9Z" fill="black"/>
<path d="M31.31 79.26L29.84 82.21L33.91 84.24L33.35 85.37L29.23 83.32C28.64 83.02 28.4 82.31 28.69 81.72L30.22 78.66C30.52 78.07 31.23 77.83 31.82 78.12L35.94 80.17L35.38 81.3L31.31 79.27V79.26Z" fill="black"/>
<path d="M42.44 83.26L38.46 82.26L38.21 83.25L41.41 84.06L41.1 85.28L37.9 84.47L37.65 85.46L41.63 86.46L41.32 87.68L36.12 86.37L37.54 80.74L42.74 82.05L42.43 83.27L42.44 83.26Z" fill="black"/>
<path d="M54.01 83.83L52.75 83.92L52.72 83.45L49.44 83.69L49.51 84.7L52.87 84.45C53.52 84.4 54.1 84.89 54.15 85.55L54.23 86.69C54.28 87.35 53.78 87.92 53.13 87.97L49.72 88.22C49.06 88.27 48.49 87.78 48.44 87.12L48.4 86.58L49.65 86.49L49.68 86.96L52.96 86.72L52.89 85.71L49.55 85.95C48.89 86 48.32 85.51 48.27 84.85L48.19 83.71C48.14 83.05 48.63 82.48 49.29 82.43L52.7 82.18C53.35 82.13 53.93 82.62 53.98 83.28L54.02 83.82L54.01 83.83Z" fill="black"/>
<path d="M58.05 85.79L61.2 84.84L59.88 80.48L61.09 80.11L62.42 84.53C62.61 85.16 62.25 85.83 61.62 86.02L58.34 87.01C57.71 87.2 57.04 86.85 56.85 86.21L55.52 81.79L56.72 81.43L58.04 85.79H58.05Z" fill="black"/>
<path d="M66.69 77.17C67.27 76.85 68 77.05 68.32 77.62L69.06 78.93C69.38 79.5 69.17 80.24 68.6 80.56L65.68 82.21C65.68 82.21 65.71 82.21 65.72 82.24C65.72 82.24 65.71 82.24 65.69 82.24L66.6 83.86L65.51 84.47L62.66 79.41L66.68 77.15L66.69 77.17ZM65.05 81.11L67.92 79.49L67.24 78.29L64.37 79.91L65.05 81.11Z" fill="black"/>
<path d="M72.33 72.66C72.83 72.22 73.59 72.27 74.02 72.76L75.02 73.88C75.45 74.37 75.41 75.13 74.91 75.57L72.4 77.8C72.4 77.8 72.43 77.8 72.45 77.82C72.45 77.82 72.44 77.83 72.43 77.83L73.67 79.23L72.73 80.06L68.88 75.72L72.33 72.66ZM71.56 76.86L74.02 74.68L73.1 73.65L70.64 75.83L71.56 76.86Z" fill="black"/>
<path d="M74.17 70.76L74.92 69.76L78.58 72.48L81.3 68.82L82.31 69.57L78.85 74.24L74.18 70.77L74.17 70.76Z" fill="black"/>
<path d="M80.47 60.34L82.54 64.37L84.48 65.33L83.92 66.46L81.97 65.5L80.23 65.82C79.4 65.97 78.28 66.17 77.52 66.3L78.18 64.96L81.04 64.34C80.64 63.48 80.2 62.55 79.79 61.7L80.46 60.35L80.47 60.34Z" fill="black"/>
<path d="M3.18 38.07C1.1 46.93 2.18 54.78 3.58 60.45L21.39 53.67L21.21 45.17L3.18 38.07Z" fill="black"/>
<path d="M93.83 38.07C95.91 46.93 94.83 54.78 93.43 60.45L75.62 53.67L75.8 45.17L93.82 38.07H93.83Z" fill="black"/>
<path d="M4.50999 47.59H6.84999V48.25H5.22999V48.97H6.54999V49.62H5.22999V50.42H6.84999V51.08H4.50999V47.61V47.59Z" fill="#FF49C5"/>
<path d="M8.13 50.37V49.93H8.83V50.32C8.83 50.39 8.85 50.42 8.93 50.42H9.85C9.92 50.42 9.95 50.4 9.95 50.32V49.9C9.95 49.79 9.90999 49.76 9.77999 49.73L8.85999 49.53C8.41999 49.44 8.14999 49.26 8.14999 48.82V48.28C8.14999 47.81 8.37 47.58 8.84 47.58H9.91C10.38 47.58 10.6 47.8 10.6 48.28V48.68H9.91V48.33C9.91 48.26 9.89 48.23 9.81 48.23H8.96C8.89 48.23 8.85999 48.25 8.85999 48.33V48.71C8.85999 48.82 8.89999 48.85 9.02999 48.88L9.95 49.08C10.39 49.17 10.66 49.35 10.66 49.79V50.37C10.66 50.84 10.44 51.06 9.96 51.06H8.81999C8.34999 51.06 8.12 50.84 8.12 50.37H8.13Z" fill="#FF49C5"/>
<path d="M12.76 48.23H11.82V47.58H14.42V48.23H13.48V51.06H12.77V48.23H12.76Z" fill="#FF49C5"/>
<path d="M15.19 50.29H15.98V51.06H15.19V50.29Z" fill="#FF49C5"/>
<path d="M80.12 49.18L80.92 48.88C81.05 48.83 81.12 48.81 81.12 48.68V48.34C81.12 48.27 81.1 48.24 81.02 48.24H80.24C80.17 48.24 80.14 48.26 80.14 48.34V48.67H79.45V48.28C79.45 47.81 79.67 47.58 80.14 47.58H81.14C81.61 47.58 81.84 47.8 81.84 48.28V48.84C81.84 49.24 81.55 49.4 81.13 49.55L80.33 49.85C80.2 49.9 80.13 49.92 80.13 50.05V50.41H81.86V51.07H79.42V49.9C79.42 49.5 79.71 49.34 80.13 49.19L80.12 49.18Z" fill="#FF49C5"/>
<path d="M82.82 50.37V48.29C82.82 47.82 83.04 47.59 83.52 47.59H84.71C85.18 47.59 85.4 47.81 85.4 48.29V50.37C85.4 50.84 85.18 51.06 84.71 51.06H83.52C83.05 51.06 82.82 50.84 82.82 50.37ZM83.63 50.41H84.58C84.65 50.41 84.68 50.39 84.68 50.31V48.34C84.68 48.27 84.66 48.24 84.58 48.24H83.63C83.56 48.24 83.53 48.26 83.53 48.34V50.31C83.53 50.38 83.55 50.41 83.63 50.41Z" fill="#FF49C5"/>
<path d="M87.11 49.18L87.91 48.88C88.04 48.83 88.11 48.81 88.11 48.68V48.34C88.11 48.27 88.09 48.24 88.01 48.24H87.23C87.16 48.24 87.13 48.26 87.13 48.34V48.67H86.43V48.28C86.43 47.81 86.65 47.58 87.13 47.58H88.13C88.6 47.58 88.82 47.8 88.82 48.28V48.84C88.82 49.24 88.53 49.4 88.11 49.55L87.31 49.85C87.18 49.9 87.11 49.92 87.11 50.05V50.41H88.84V51.07H86.4V49.9C86.4 49.5 86.69 49.34 87.11 49.19V49.18Z" fill="#FF49C5"/>
<path d="M91.2 50.35H89.61L89.46 49.76L91.24 47.59H91.9V49.71H92.4V50.35H91.9V51.06H91.2V50.35ZM91.2 49.71V48.62L90.34 49.71H91.2Z" fill="#FF49C5"/>
<mask id="mask0_3_346" style="mask-type:luminance" maskUnits="userSpaceOnUse" x="21" y="21" width="55" height="42">
<path d="M58.4 44.77C57.26 46.57 53.13 48.25 51.13 46.8C50.45 46.31 50.7 43.27 54.16 40.99C57.67 38.67 60.13 42.05 58.4 44.77ZM42.75 40.99C39.24 38.67 36.78 42.05 38.51 44.77C39.65 46.57 43.78 48.25 45.78 46.8C46.46 46.31 46.21 43.27 42.75 40.99ZM48.45 21.81C33.76 21.81 21.8 33.76 21.8 48.46C21.8 53.81 23.38 58.8 26.11 62.98C28.2 60.26 30.79 57.93 33.7 56.14C33.71 54.41 34.69 51.83 37.72 50.76C35.55 48.59 33.52 46.53 34.18 40.95C34.71 36.48 38.46 29.11 48.44 29.11C58.42 29.11 62.17 36.48 62.7 40.95C63.36 46.52 61.33 48.59 59.16 50.76C60.68 51.29 61.68 52.21 62.3 53.2C62.92 54.19 63.17 55.27 63.18 56.14C66.09 57.94 68.68 60.27 70.77 62.99C73.5 58.81 75.08 53.82 75.08 48.47C75.08 33.78 63.13 21.82 48.43 21.82L48.45 21.81Z" fill="white"/>
</mask>
<g mask="url(#mask0_3_346)">
<path d="M75.1 21.81H21.81V23.86H75.1V21.81Z" fill="#BE50FD"/>
<path d="M75.1 23.86H21.81V24.18H75.1V23.86Z" fill="#BE50FD"/>
<path d="M75.1 24.18H21.81V24.5H75.1V24.18Z" fill="#BF50FC"/>
<path d="M75.1 24.51H21.81V24.83H75.1V24.51Z" fill="#BF4FFB"/>
<path d="M75.1 24.83H21.81V25.15H75.1V24.83Z" fill="#C04FFA"/>
<path d="M75.1 25.16H21.81V25.48H75.1V25.16Z" fill="#C04FF9"/>
<path d="M75.1 25.48H21.81V25.8H75.1V25.48Z" fill="#C14FF8"/>
<path d="M75.1 25.81H21.81V26.13H75.1V25.81Z" fill="#C14EF7"/>
<path d="M75.1 26.13H21.81V26.45H75.1V26.13Z" fill="#C24EF6"/>
<path d="M75.1 26.45H21.81V26.77H75.1V26.45Z" fill="#C24EF5"/>
<path d="M75.1 26.78H21.81V27.1H75.1V26.78Z" fill="#C34DF4"/>
<path d="M75.1 27.1H21.81V27.42H75.1V27.1Z" fill="#C34DF3"/>
<path d="M75.1 27.43H21.81V27.75H75.1V27.43Z" fill="#C44DF2"/>
<path d="M75.1 27.75H21.81V28.07H75.1V27.75Z" fill="#C54DF1"/>
<path d="M75.1 28.08H21.81V28.4H75.1V28.08Z" fill="#C54CF0"/>
<path d="M75.1 28.4H21.81V28.72H75.1V28.4Z" fill="#C64CEF"/>
<path d="M75.1 28.73H21.81V29.05H75.1V28.73Z" fill="#C64CEE"/>
<path d="M75.1 29.05H21.81V29.37H75.1V29.05Z" fill="#C74BED"/>
<path d="M75.1 29.37H21.81V29.69H75.1V29.37Z" fill="#C74BEC"/>
<path d="M75.1 29.7H21.81V30.02H75.1V29.7Z" fill="#C84BEB"/>
<path d="M75.1 30.02H21.81V30.34H75.1V30.02Z" fill="#C84BEA"/>
<path d="M75.1 30.35H21.81V30.67H75.1V30.35Z" fill="#C94AE9"/>
<path d="M75.1 30.67H21.81V30.99H75.1V30.67Z" fill="#C94AE8"/>
<path d="M75.1 31H21.81V31.32H75.1V31Z" fill="#CA4AE7"/>
<path d="M75.1 31.32H21.81V31.64H75.1V31.32Z" fill="#CA49E6"/>
<path d="M75.1 31.65H21.81V31.97H75.1V31.65Z" fill="#CB49E5"/>
<path d="M75.1 31.97H21.81V32.29H75.1V31.97Z" fill="#CC49E4"/>
<path d="M75.1 32.29H21.81V32.61H75.1V32.29Z" fill="#CC49E3"/>
<path d="M75.1 32.62H21.81V32.94H75.1V32.62Z" fill="#CD48E2"/>
<path d="M75.1 32.94H21.81V33.26H75.1V32.94Z" fill="#CD48E1"/>
<path d="M75.1 33.27H21.81V33.59H75.1V33.27Z" fill="#CE48E0"/>
<path d="M75.1 33.59H21.81V33.91H75.1V33.59Z" fill="#CE48DF"/>
<path d="M75.1 33.92H21.81V34.24H75.1V33.92Z" fill="#CF47DE"/>
<path d="M75.1 34.24H21.81V34.56H75.1V34.24Z" fill="#CF47DD"/>
<path d="M75.1 34.57H21.81V34.89H75.1V34.57Z" fill="#D047DC"/>
<path d="M75.1 34.89H21.81V35.21H75.1V34.89Z" fill="#D046DB"/>
<path d="M75.1 35.22H21.81V35.54H75.1V35.22Z" fill="#D146DA"/>
<path d="M75.1 35.54H21.81V35.86H75.1V35.54Z" fill="#D246D9"/>
<path d="M75.1 35.86H21.81V36.18H75.1V35.86Z" fill="#D246D8"/>
<path d="M75.1 36.19H21.81V36.51H75.1V36.19Z" fill="#D345D7"/>
<path d="M75.1 36.51H21.81V36.83H75.1V36.51Z" fill="#D345D6"/>
<path d="M75.1 36.84H21.81V37.16H75.1V36.84Z" fill="#D445D5"/>
<path d="M75.1 37.16H21.81V37.48H75.1V37.16Z" fill="#D444D4"/>
<path d="M75.1 37.49H21.81V37.81H75.1V37.49Z" fill="#D544D3"/>
<path d="M75.1 37.81H21.81V38.13H75.1V37.81Z" fill="#D544D2"/>
<path d="M75.1 38.14H21.81V38.46H75.1V38.14Z" fill="#D644D1"/>
<path d="M75.1 38.46H21.81V38.78H75.1V38.46Z" fill="#D643D0"/>
<path d="M75.1 38.78H21.81V39.1H75.1V38.78Z" fill="#D743CF"/>
<path d="M75.1 39.11H21.81V39.43H75.1V39.11Z" fill="#D743CE"/>
<path d="M75.1 39.43H21.81V39.75H75.1V39.43Z" fill="#D842CD"/>
<path d="M75.1 39.76H21.81V40.08H75.1V39.76Z" fill="#D942CC"/>
<path d="M75.1 40.08H21.81V40.4H75.1V40.08Z" fill="#D942CB"/>
<path d="M75.1 40.41H21.81V40.73H75.1V40.41Z" fill="#DA42CA"/>
<path d="M75.1 40.73H21.81V41.05H75.1V40.73Z" fill="#DA41C9"/>
<path d="M75.1 41.06H21.81V41.38H75.1V41.06Z" fill="#DB41C8"/>
<path d="M75.1 41.38H21.81V41.7H75.1V41.38Z" fill="#DB41C7"/>
<path d="M75.1 41.7H21.81V42.02H75.1V41.7Z" fill="#DC40C6"/>
<path d="M75.1 42.03H21.81V42.35H75.1V42.03Z" fill="#DC40C5"/>
<path d="M75.1 42.35H21.81V42.67H75.1V42.35Z" fill="#DD40C4"/>
<path d="M75.1 42.68H21.81V43H75.1V42.68Z" fill="#DD40C3"/>
<path d="M75.1 43H21.81V43.32H75.1V43Z" fill="#DE3FC2"/>
<path d="M75.1 43.33H21.81V43.65H75.1V43.33Z" fill="#DF3FC1"/>
<path d="M75.1 43.65H21.81V43.97H75.1V43.65Z" fill="#DF3FBF"/>
<path d="M75.1 43.98H21.81V44.3H75.1V43.98Z" fill="#E03EBE"/>
<path d="M75.1 44.3H21.81V44.62H75.1V44.3Z" fill="#E03EBD"/>
<path d="M75.1 44.62H21.81V44.94H75.1V44.62Z" fill="#E13EBC"/>
<path d="M75.1 44.95H21.81V45.27H75.1V44.95Z" fill="#E13EBB"/>
<path d="M75.1 45.27H21.81V45.59H75.1V45.27Z" fill="#E23DBA"/>
<path d="M75.1 45.6H21.81V45.92H75.1V45.6Z" fill="#E23DB9"/>
<path d="M75.1 45.92H21.81V46.24H75.1V45.92Z" fill="#E33DB8"/>
<path d="M75.1 46.25H21.81V46.57H75.1V46.25Z" fill="#E33CB7"/>
<path d="M75.1 46.57H21.81V46.89H75.1V46.57Z" fill="#E43CB6"/>
<path d="M75.1 46.9H21.81V47.22H75.1V46.9Z" fill="#E43CB5"/>
<path d="M75.1 47.22H21.81V47.54H75.1V47.22Z" fill="#E53CB4"/>
<path d="M75.1 47.55H21.81V47.87H75.1V47.55Z" fill="#E63BB3"/>
<path d="M75.1 47.87H21.81V48.19H75.1V47.87Z" fill="#E63BB2"/>
<path d="M75.1 48.19H21.81V48.51H75.1V48.19Z" fill="#E73BB1"/>
<path d="M75.1 48.52H21.81V48.84H75.1V48.52Z" fill="#E73AB0"/>
<path d="M75.1 48.84H21.81V49.16H75.1V48.84Z" fill="#E83AAF"/>
<path d="M75.1 49.17H21.81V49.49H75.1V49.17Z" fill="#E83AAE"/>
<path d="M75.1 49.49H21.81V49.81H75.1V49.49Z" fill="#E93AAD"/>
<path d="M75.1 49.82H21.81V50.14H75.1V49.82Z" fill="#E939AC"/>
<path d="M75.1 50.14H21.81V50.46H75.1V50.14Z" fill="#EA39AB"/>
<path d="M75.1 50.47H21.81V50.79H75.1V50.47Z" fill="#EA39AA"/>
<path d="M75.1 50.79H21.81V51.11H75.1V50.79Z" fill="#EB38A9"/>
<path d="M75.1 51.11H21.81V51.43H75.1V51.11Z" fill="#EC38A8"/>
<path d="M75.1 51.44H21.81V51.76H75.1V51.44Z" fill="#EC38A7"/>
<path d="M75.1 51.76H21.81V52.08H75.1V51.76Z" fill="#ED38A6"/>
<path d="M75.1 52.09H21.81V52.41H75.1V52.09Z" fill="#ED37A5"/>
<path d="M75.1 52.41H21.81V52.73H75.1V52.41Z" fill="#EE37A4"/>
<path d="M75.1 52.74H21.81V53.06H75.1V52.74Z" fill="#EE37A3"/>
<path d="M75.1 53.06H21.81V53.38H75.1V53.06Z" fill="#EF37A2"/>
<path d="M75.1 53.39H21.81V53.71H75.1V53.39Z" fill="#EF36A1"/>
<path d="M75.1 53.71H21.81V54.03H75.1V53.71Z" fill="#F036A0"/>
<path d="M75.1 54.03H21.81V54.35H75.1V54.03Z" fill="#F0369F"/>
<path d="M75.1 54.36H21.81V54.68H75.1V54.36Z" fill="#F1359E"/>
<path d="M75.1 54.68H21.81V55H75.1V54.68Z" fill="#F1359D"/>
<path d="M75.1 55.01H21.81V55.33H75.1V55.01Z" fill="#F2359C"/>
<path d="M75.1 55.33H21.81V55.65H75.1V55.33Z" fill="#F3359B"/>
<path d="M75.1 55.66H21.81V55.98H75.1V55.66Z" fill="#F3349A"/>
<path d="M75.1 55.98H21.81V56.3H75.1V55.98Z" fill="#F43499"/>
<path d="M75.1 56.31H21.81V56.63H75.1V56.31Z" fill="#F43498"/>
<path d="M75.1 56.63H21.81V56.95H75.1V56.63Z" fill="#F53397"/>
<path d="M75.1 56.95H21.81V57.27H75.1V56.95Z" fill="#F53396"/>
<path d="M75.1 57.28H21.81V57.6H75.1V57.28Z" fill="#F63395"/>
<path d="M75.1 57.6H21.81V57.92H75.1V57.6Z" fill="#F63394"/>
<path d="M75.1 57.93H21.81V58.25H75.1V57.93Z" fill="#F73293"/>
<path d="M75.1 58.25H21.81V58.57H75.1V58.25Z" fill="#F73292"/>
<path d="M75.1 58.58H21.81V58.9H75.1V58.58Z" fill="#F83291"/>
<path d="M75.1 58.9H21.81V59.22H75.1V58.9Z" fill="#F93190"/>
<path d="M75.1 59.23H21.81V59.55H75.1V59.23Z" fill="#F9318F"/>
<path d="M75.1 59.55H21.81V59.87H75.1V59.55Z" fill="#FA318E"/>
<path d="M75.1 59.87H21.81V60.19H75.1V59.87Z" fill="#FA318D"/>
<path d="M75.1 60.2H21.81V60.52H75.1V60.2Z" fill="#FB308C"/>
<path d="M75.1 60.52H21.81V60.84H75.1V60.52Z" fill="#FB308B"/>
<path d="M75.1 60.85H21.81V61.17H75.1V60.85Z" fill="#FC308A"/>
<path d="M75.1 61.17H21.81V61.49H75.1V61.17Z" fill="#FC2F89"/>
<path d="M75.1 61.5H21.81V61.82H75.1V61.5Z" fill="#FD2F88"/>
<path d="M75.1 61.82H21.81V62.14H75.1V61.82Z" fill="#FD2F87"/>
<path d="M75.1 62.15H21.81V62.47H75.1V62.15Z" fill="#FE2F86"/>
<path d="M75.1 62.47H21.81V62.79H75.1V62.47Z" fill="#FE2E85"/>
<path d="M75.1 62.8H21.81V62.98H75.1V62.8Z" fill="#FF2E84"/>
<path d="M46.47 38.67H36.78V38.78H46.47V38.67Z" fill="#D643D0"/>
<path d="M46.47 38.78H36.78V39.1H46.47V38.78Z" fill="#D743CF"/>
<path d="M46.47 39.11H36.78V39.43H46.47V39.11Z" fill="#D743CE"/>
<path d="M46.47 39.43H36.78V39.75H46.47V39.43Z" fill="#D842CD"/>
<path d="M46.47 39.76H36.78V40.08H46.47V39.76Z" fill="#D942CC"/>
<path d="M46.47 40.08H36.78V40.4H46.47V40.08Z" fill="#D942CB"/>
<path d="M46.47 40.41H36.78V40.73H46.47V40.41Z" fill="#DA42CA"/>
<path d="M46.47 40.73H36.78V41.05H46.47V40.73Z" fill="#DA41C9"/>
<path d="M46.47 41.06H36.78V41.38H46.47V41.06Z" fill="#DB41C8"/>
<path d="M46.47 41.38H36.78V41.7H46.47V41.38Z" fill="#DB41C7"/>
<path d="M46.47 41.7H36.78V42.02H46.47V41.7Z" fill="#DC40C6"/>
<path d="M46.47 42.03H36.78V42.35H46.47V42.03Z" fill="#DC40C5"/>
<path d="M46.47 42.35H36.78V42.67H46.47V42.35Z" fill="#DD40C4"/>
<path d="M46.47 42.68H36.78V43H46.47V42.68Z" fill="#DD40C3"/>
<path d="M46.47 43H36.78V43.32H46.47V43Z" fill="#DE3FC2"/>
<path d="M46.47 43.33H36.78V43.65H46.47V43.33Z" fill="#DF3FC1"/>
<path d="M46.47 43.65H36.78V43.97H46.47V43.65Z" fill="#DF3FBF"/>
<path d="M46.47 43.98H36.78V44.3H46.47V43.98Z" fill="#E03EBE"/>
<path d="M46.47 44.3H36.78V44.62H46.47V44.3Z" fill="#E03EBD"/>
<path d="M46.47 44.62H36.78V44.94H46.47V44.62Z" fill="#E13EBC"/>
<path d="M46.47 44.95H36.78V45.27H46.47V44.95Z" fill="#E13EBB"/>
<path d="M46.47 45.27H36.78V45.59H46.47V45.27Z" fill="#E23DBA"/>
<path d="M46.47 45.6H36.78V45.92H46.47V45.6Z" fill="#E23DB9"/>
<path d="M46.47 45.92H36.78V46.24H46.47V45.92Z" fill="#E33DB8"/>
<path d="M46.47 46.25H36.78V46.57H46.47V46.25Z" fill="#E33CB7"/>
<path d="M46.47 46.57H36.78V46.89H46.47V46.57Z" fill="#E43CB6"/>
<path d="M46.47 46.9H36.78V47.22H46.47V46.9Z" fill="#E43CB5"/>
<path d="M46.47 47.22H36.78V47.54H46.47V47.22Z" fill="#E53CB4"/>
<path d="M46.47 47.55H36.78V47.87H46.47V47.55Z" fill="#E63BB3"/>
<path d="M46.47 47.87H36.78V48.19H46.47V47.87Z" fill="#E63BB2"/>
<path d="M46.47 48.19H36.78V48.25H46.47V48.19Z" fill="#E73BB1"/>
<path d="M60.13 38.67H50.44V38.78H60.13V38.67Z" fill="#D643D0"/>
<path d="M60.13 38.78H50.44V39.1H60.13V38.78Z" fill="#D743CF"/>
<path d="M60.13 39.11H50.44V39.43H60.13V39.11Z" fill="#D743CE"/>
<path d="M60.13 39.43H50.44V39.75H60.13V39.43Z" fill="#D842CD"/>
<path d="M60.13 39.76H50.44V40.08H60.13V39.76Z" fill="#D942CC"/>
<path d="M60.13 40.08H50.44V40.4H60.13V40.08Z" fill="#D942CB"/>
<path d="M60.13 40.41H50.44V40.73H60.13V40.41Z" fill="#DA42CA"/>
<path d="M60.13 40.73H50.44V41.05H60.13V40.73Z" fill="#DA41C9"/>
<path d="M60.13 41.06H50.44V41.38H60.13V41.06Z" fill="#DB41C8"/>
<path d="M60.13 41.38H50.44V41.7H60.13V41.38Z" fill="#DB41C7"/>
<path d="M60.13 41.7H50.44V42.02H60.13V41.7Z" fill="#DC40C6"/>
<path d="M60.13 42.03H50.44V42.35H60.13V42.03Z" fill="#DC40C5"/>
<path d="M60.13 42.35H50.44V42.67H60.13V42.35Z" fill="#DD40C4"/>
<path d="M60.13 42.68H50.44V43H60.13V42.68Z" fill="#DD40C3"/>
<path d="M60.13 43H50.44V43.32H60.13V43Z" fill="#DE3FC2"/>
<path d="M60.13 43.33H50.44V43.65H60.13V43.33Z" fill="#DF3FC1"/>
<path d="M60.13 43.65H50.44V43.97H60.13V43.65Z" fill="#DF3FBF"/>
<path d="M60.13 43.98H50.44V44.3H60.13V43.98Z" fill="#E03EBE"/>
<path d="M60.13 44.3H50.44V44.62H60.13V44.3Z" fill="#E03EBD"/>
<path d="M60.13 44.62H50.44V44.94H60.13V44.62Z" fill="#E13EBC"/>
<path d="M60.13 44.95H50.44V45.27H60.13V44.95Z" fill="#E13EBB"/>
<path d="M60.13 45.27H50.44V45.59H60.13V45.27Z" fill="#E23DBA"/>
<path d="M60.13 45.6H50.44V45.92H60.13V45.6Z" fill="#E23DB9"/>
<path d="M60.13 45.92H50.44V46.24H60.13V45.92Z" fill="#E33DB8"/>
<path d="M60.13 46.25H50.44V46.57H60.13V46.25Z" fill="#E33CB7"/>
<path d="M60.13 46.57H50.44V46.89H60.13V46.57Z" fill="#E43CB6"/>
<path d="M60.13 46.9H50.44V47.22H60.13V46.9Z" fill="#E43CB5"/>
<path d="M60.13 47.22H50.44V47.54H60.13V47.22Z" fill="#E53CB4"/>
<path d="M60.13 47.55H50.44V47.87H60.13V47.55Z" fill="#E63BB3"/>
<path d="M60.13 47.87H50.44V48.19H60.13V47.87Z" fill="#E63BB2"/>
<path d="M60.13 48.19H50.44V48.25H60.13V48.19Z" fill="#E73BB1"/>
</g>
<mask id="mask1_3_346" style="mask-type:luminance" maskUnits="userSpaceOnUse" x="27" y="53" width="43" height="23">
<path d="M62.92 57.75C65.58 59.47 67.95 61.67 69.88 64.27C65.02 70.83 57.23 75.09 48.45 75.09C44.06 75.09 39.92 74.02 36.27 72.14C32.62 70.26 29.45 67.55 27.02 64.27C28.95 61.66 31.32 59.47 33.98 57.75C34.3 58.9 34.6 59.43 34.6 59.43C34.6 59.43 34.38 61.23 35.17 62.59C35.17 62.59 35.31 65.44 36.93 65.02C38.61 64.65 37.64 62.48 36.85 61.84C36.85 61.84 36.88 60.04 36.47 59.05C36.47 59.05 36.76 58.04 36.69 57.4C36.69 57.4 37.39 56.77 37.73 57.4C37.73 57.4 37.79 58.82 38.55 59.77C38.55 59.77 38.55 61.51 39.31 62.46C39.31 62.46 39.42 65.15 41.03 64.6C42.59 64.17 41.24 62.04 40.9 61.79C40.9 61.79 40.9 60.18 40.27 59.29C40.27 59.29 40.36 57.42 39.99 56.57C39.99 56.57 40.12 56.1 40.56 56.54C40.56 56.54 41 57.52 41.83 58.19C41.83 58.19 42.49 59.36 43.16 59.71C43.11 60.51 44.48 62.09 45.48 61.05C46.15 60.36 45.03 58.89 44.2 58.66C44.2 58.66 43.66 57.61 43.06 57.01C43.06 57.01 42.77 55.87 42.3 54.83C42.3 54.83 42.42 54.61 42.5 54.14C44.44 53.69 46.44 53.46 48.46 53.46C50.48 53.46 52.48 53.69 54.42 54.14C54.5 54.6 54.62 54.83 54.62 54.83C54.15 55.87 53.86 57.01 53.86 57.01C53.26 57.61 52.72 58.66 52.72 58.66C51.89 58.89 50.77 60.36 51.44 61.05C52.44 62.09 53.82 60.51 53.76 59.71C54.42 59.36 55.09 58.19 55.09 58.19C55.91 57.53 56.36 56.54 56.36 56.54C56.8 56.1 56.93 56.57 56.93 56.57C56.55 57.42 56.65 59.29 56.65 59.29C56.02 60.18 56.02 61.79 56.02 61.79C55.67 62.04 54.32 64.17 55.89 64.6C57.49 65.15 57.61 62.46 57.61 62.46C58.37 61.51 58.37 59.77 58.37 59.77C59.13 58.82 59.19 57.4 59.19 57.4C59.54 56.77 60.23 57.4 60.23 57.4C60.17 58.03 60.45 59.05 60.45 59.05C60.04 60.03 60.07 61.84 60.07 61.84C59.28 62.48 58.3 64.66 59.99 65.02C61.62 65.44 61.75 62.59 61.75 62.59C62.54 61.23 62.32 59.43 62.32 59.43C62.32 59.43 62.62 58.9 62.94 57.75H62.92ZM61.02 69.96C61.31 69.11 60.93 68.13 60.03 67.39C59.81 67.21 59.5 67.25 59.32 67.46C59.14 67.68 59.18 67.99 59.39 68.17C59.86 68.55 60.12 69.02 60.11 69.41C60 69.27 59.88 69.13 59.74 69C59.33 68.62 58.8 68.3 58.2 68.09C57.39 67.81 56.57 67.77 55.88 67.95C56.15 67.57 56.77 67.36 57.52 67.43C57.8 67.45 58.04 67.25 58.06 66.97C58.08 66.69 57.88 66.45 57.6 66.43C56.24 66.32 55.15 66.86 54.82 67.83C54.74 68.07 54.71 68.32 54.73 68.58L54.71 68.6L54.77 68.81C54.81 68.99 54.87 69.18 54.96 69.36C55.04 69.52 55.13 69.67 55.24 69.81H55.25C55.25 69.81 55.3 69.89 55.33 69.92V69.94H55.34C55.34 69.94 55.37 69.98 55.39 70L55.41 70.02C55.41 70.02 55.45 70.06 55.47 70.08C55.47 70.08 55.51 70.13 55.54 70.15L55.57 70.18C55.57 70.18 55.6 70.21 55.62 70.23C55.64 70.25 55.67 70.28 55.69 70.3C55.73 70.33 55.76 70.36 55.8 70.39V70.41H55.82L55.86 70.44H55.88C55.88 70.44 55.94 70.5 55.97 70.52C55.99 70.54 56.01 70.55 56.03 70.56C56.04 70.57 56.06 70.58 56.07 70.59L56.1 70.61H56.12C56.12 70.61 56.15 70.64 56.17 70.66C56.21 70.69 56.25 70.71 56.29 70.74C56.38 70.79 56.47 70.84 56.56 70.89C56.6 70.91 56.65 70.93 56.7 70.96C56.7 70.96 56.78 71 56.82 71.02L56.86 71.04C56.86 71.04 56.93 71.07 56.97 71.08L57.01 71.1C57.01 71.1 57.08 71.12 57.11 71.14H57.13C57.62 71.32 58.11 71.4 58.57 71.4C59.31 71.4 59.97 71.19 60.43 70.8H60.45L60.63 70.65V70.62C60.8 70.43 60.93 70.22 61.02 69.98V69.96ZM50.25 58.45C51 58.13 51.47 57.59 51.47 56.95C51.47 56.15 50.71 55.47 49.53 55.23C49.26 55.17 48.99 55.35 48.93 55.62C48.87 55.89 49.05 56.16 49.32 56.22C50.03 56.37 50.46 56.71 50.46 56.95C50.46 57 50.44 57.06 50.4 57.12C49.95 56.8 49.29 56.61 48.58 56.61C47.87 56.61 47.21 56.8 46.76 57.12C46.72 57.06 46.7 57 46.7 56.95C46.7 56.75 47 56.45 47.59 56.28C47.86 56.2 48.01 55.92 47.93 55.65C47.85 55.38 47.57 55.23 47.3 55.31C46.31 55.61 45.7 56.23 45.7 56.95C45.7 57.59 46.17 58.13 46.92 58.45C47.36 58.72 47.95 58.87 48.59 58.87C49.23 58.87 49.82 58.72 50.26 58.45H50.25ZM42.14 68.81L42.2 68.59L42.18 68.57C42.2 68.32 42.18 68.07 42.09 67.83C41.76 66.87 40.66 66.32 39.31 66.43C39.03 66.45 38.83 66.7 38.85 66.97C38.87 67.24 39.12 67.45 39.39 67.43C40.14 67.37 40.76 67.57 41.03 67.95C40.75 67.88 40.46 67.84 40.15 67.84C39.69 67.84 39.2 67.92 38.71 68.09C37.9 68.37 37.23 68.84 36.8 69.41C36.79 69.02 37.05 68.55 37.52 68.17C37.74 67.99 37.77 67.68 37.59 67.46C37.41 67.24 37.1 67.21 36.88 67.39C35.97 68.13 35.59 69.11 35.89 69.96C35.97 70.2 36.1 70.42 36.28 70.6V70.63L36.45 70.76L36.47 70.78C36.67 70.94 36.9 71.07 37.17 71.17H37.18C37.18 71.17 37.25 71.2 37.29 71.21H37.32C37.43 71.25 37.54 71.28 37.66 71.3C37.7 71.3 37.73 71.31 37.77 71.32C37.81 71.32 37.84 71.33 37.88 71.34C37.88 71.34 37.95 71.34 37.99 71.35C38.03 71.35 38.07 71.35 38.1 71.35C38.17 71.35 38.25 71.35 38.33 71.35C38.39 71.35 38.45 71.35 38.51 71.35C38.56 71.35 38.62 71.35 38.67 71.34H38.7C38.75 71.34 38.81 71.33 38.86 71.32C38.92 71.32 38.98 71.3 39.04 71.29C39.08 71.29 39.13 71.27 39.17 71.26C39.21 71.26 39.24 71.24 39.28 71.24C39.32 71.24 39.36 71.22 39.4 71.21C39.43 71.21 39.46 71.19 39.49 71.19C39.58 71.16 39.67 71.14 39.76 71.11C39.8 71.1 39.84 71.08 39.87 71.07C39.88 71.07 39.9 71.07 39.91 71.06L39.96 71.04C39.96 71.04 40 71.03 40.01 71.02H40.02C40.02 71.02 40.11 70.98 40.16 70.96C40.16 70.96 40.23 70.92 40.27 70.91H40.28L40.3 70.89C40.3 70.89 40.36 70.86 40.39 70.84H40.41C41.34 70.34 41.98 69.58 42.14 68.79V68.81Z" fill="white"/>
</mask>
<g mask="url(#mask1_3_346)">
<path d="M42.21 66.3H35.59V66.38H42.21V66.3Z" fill="#FF4478"/>
<path d="M42.21 66.38H35.59V66.76H42.21V66.38Z" fill="#FF4378"/>
<path d="M42.21 66.76H35.59V67.14H42.21V66.76Z" fill="#FF4279"/>
<path d="M42.21 67.14H35.59V67.52H42.21V67.14Z" fill="#FF4179"/>
<path d="M42.21 67.52H35.59V67.9H42.21V67.52Z" fill="#FF407A"/>
<path d="M42.21 67.9H35.59V68.28H42.21V67.9Z" fill="#FF3F7A"/>
<path d="M42.21 68.28H35.59V68.66H42.21V68.28Z" fill="#FF3E7B"/>
<path d="M42.21 68.66H35.59V69.04H42.21V68.66Z" fill="#FF3D7C"/>
<path d="M42.21 69.04H35.59V69.42H42.21V69.04Z" fill="#FF3C7C"/>
<path d="M42.21 69.42H35.59V69.8H42.21V69.42Z" fill="#FF3B7D"/>
<path d="M42.21 69.8H35.59V70.18H42.21V69.8Z" fill="#FF3A7D"/>
<path d="M42.21 70.18H35.59V70.56H42.21V70.18Z" fill="#FF397E"/>
<path d="M42.21 70.56H35.59V70.94H42.21V70.56Z" fill="#FF387F"/>
<path d="M42.21 70.94H35.59V71.32H42.21V70.94Z" fill="#FF377F"/>
<path d="M42.21 71.32H35.59V71.37H42.21V71.32Z" fill="#FF3680"/>
<path d="M51.47 55.16H45.68V55.37H51.47V55.16Z" fill="#FF6266"/>
<path d="M51.47 55.37H45.68V55.75H51.47V55.37Z" fill="#FF6167"/>
<path d="M51.47 55.75H45.68V56.13H51.47V55.75Z" fill="#FF6068"/>
<path d="M51.47 56.13H45.68V56.51H51.47V56.13Z" fill="#FF5F68"/>
<path d="M51.47 56.51H45.68V56.89H51.47V56.51Z" fill="#FF5E69"/>
<path d="M51.47 56.89H45.68V57.27H51.47V56.89Z" fill="#FF5D69"/>
<path d="M51.47 57.27H45.68V57.65H51.47V57.27Z" fill="#FF5C6A"/>
<path d="M51.47 57.65H45.68V58.03H51.47V57.65Z" fill="#FF5A6B"/>
<path d="M51.47 58.03H45.68V58.41H51.47V58.03Z" fill="#FF596B"/>
<path d="M51.47 58.41H45.68V58.79H51.47V58.41Z" fill="#FF586C"/>
<path d="M51.47 58.79H45.68V58.86H51.47V58.79Z" fill="#FF576C"/>
<path d="M61.32 66.3H54.7V66.38H61.32V66.3Z" fill="#FF4478"/>
<path d="M61.32 66.38H54.7V66.76H61.32V66.38Z" fill="#FF4378"/>
<path d="M61.32 66.76H54.7V67.14H61.32V66.76Z" fill="#FF4279"/>
<path d="M61.32 67.14H54.7V67.52H61.32V67.14Z" fill="#FF4179"/>
<path d="M61.32 67.52H54.7V67.9H61.32V67.52Z" fill="#FF407A"/>
<path d="M61.32 67.9H54.7V68.28H61.32V67.9Z" fill="#FF3F7A"/>
<path d="M61.32 68.28H54.7V68.66H61.32V68.28Z" fill="#FF3E7B"/>
<path d="M61.32 68.66H54.7V69.04H61.32V68.66Z" fill="#FF3D7C"/>
<path d="M61.32 69.04H54.7V69.42H61.32V69.04Z" fill="#FF3C7C"/>
<path d="M61.32 69.42H54.7V69.8H61.32V69.42Z" fill="#FF3B7D"/>
<path d="M61.32 69.8H54.7V70.18H61.32V69.8Z" fill="#FF3A7D"/>
<path d="M61.32 70.18H54.7V70.56H61.32V70.18Z" fill="#FF397E"/>
<path d="M61.32 70.56H54.7V70.94H61.32V70.56Z" fill="#FF387F"/>
<path d="M61.32 70.94H54.7V71.32H61.32V70.94Z" fill="#FF377F"/>
<path d="M61.32 71.32H54.7V71.37H61.32V71.32Z" fill="#FF3680"/>
<path d="M69.88 53.47H27.03V53.85H69.88V53.47Z" fill="#FF6664"/>
<path d="M69.88 53.85H27.03V54.23H69.88V53.85Z" fill="#FF6565"/>
<path d="M69.88 54.23H27.03V54.61H69.88V54.23Z" fill="#FF6465"/>
<path d="M69.88 54.61H27.03V54.99H69.88V54.61Z" fill="#FF6366"/>
<path d="M69.88 54.99H27.03V55.37H69.88V54.99Z" fill="#FF6266"/>
<path d="M69.88 55.37H27.03V55.75H69.88V55.37Z" fill="#FF6167"/>
<path d="M69.88 55.75H27.03V56.13H69.88V55.75Z" fill="#FF6068"/>
<path d="M69.88 56.13H27.03V56.51H69.88V56.13Z" fill="#FF5F68"/>
<path d="M69.88 56.51H27.03V56.89H69.88V56.51Z" fill="#FF5E69"/>
<path d="M69.88 56.89H27.03V57.27H69.88V56.89Z" fill="#FF5D69"/>
<path d="M69.88 57.27H27.03V57.65H69.88V57.27Z" fill="#FF5C6A"/>
<path d="M69.88 57.65H27.03V58.03H69.88V57.65Z" fill="#FF5A6B"/>
<path d="M69.88 58.03H27.03V58.41H69.88V58.03Z" fill="#FF596B"/>
<path d="M69.88 58.41H27.03V58.79H69.88V58.41Z" fill="#FF586C"/>
<path d="M69.88 58.79H27.03V59.17H69.88V58.79Z" fill="#FF576C"/>
<path d="M69.88 59.17H27.03V59.55H69.88V59.17Z" fill="#FF566D"/>
<path d="M69.88 59.55H27.03V59.93H69.88V59.55Z" fill="#FF556E"/>
<path d="M69.88 59.93H27.03V60.31H69.88V59.93Z" fill="#FF546E"/>
<path d="M69.88 60.31H27.03V60.69H69.88V60.31Z" fill="#FF536F"/>
<path d="M69.88 60.69H27.03V61.07H69.88V60.69Z" fill="#FF526F"/>
<path d="M69.88 61.07H27.03V61.45H69.88V61.07Z" fill="#FF5170"/>
<path d="M69.88 61.45H27.03V61.83H69.88V61.45Z" fill="#FF5071"/>
<path d="M69.88 61.83H27.03V62.21H69.88V61.83Z" fill="#FF4F71"/>
<path d="M69.88 62.21H27.03V62.59H69.88V62.21Z" fill="#FF4E72"/>
<path d="M69.88 62.59H27.03V62.97H69.88V62.59Z" fill="#FF4D72"/>
<path d="M69.88 62.97H27.03V63.35H69.88V62.97Z" fill="#FF4C73"/>
<path d="M69.88 63.35H27.03V63.73H69.88V63.35Z" fill="#FF4B73"/>
<path d="M69.88 63.73H27.03V64.11H69.88V63.73Z" fill="#FF4A74"/>
<path d="M69.88 64.11H27.03V64.49H69.88V64.11Z" fill="#FF4975"/>
<path d="M69.88 64.49H27.03V64.87H69.88V64.49Z" fill="#FF4875"/>
<path d="M69.88 64.87H27.03V65.25H69.88V64.87Z" fill="#FF4776"/>
<path d="M69.88 65.25H27.03V65.63H69.88V65.25Z" fill="#FF4676"/>
<path d="M69.88 65.63H27.03V66.01H69.88V65.63Z" fill="#FF4577"/>
<path d="M69.88 66H27.03V66.38H69.88V66Z" fill="#FF4478"/>
<path d="M69.88 66.38H27.03V66.76H69.88V66.38Z" fill="#FF4378"/>
<path d="M69.88 66.76H27.03V67.14H69.88V66.76Z" fill="#FF4279"/>
<path d="M69.88 67.14H27.03V67.52H69.88V67.14Z" fill="#FF4179"/>
<path d="M69.88 67.52H27.03V67.9H69.88V67.52Z" fill="#FF407A"/>
<path d="M69.88 67.9H27.03V68.28H69.88V67.9Z" fill="#FF3F7A"/>
<path d="M69.88 68.28H27.03V68.66H69.88V68.28Z" fill="#FF3E7B"/>
<path d="M69.88 68.66H27.03V69.04H69.88V68.66Z" fill="#FF3D7C"/>
<path d="M69.88 69.04H27.03V69.42H69.88V69.04Z" fill="#FF3C7C"/>
<path d="M69.88 69.42H27.03V69.8H69.88V69.42Z" fill="#FF3B7D"/>
<path d="M69.88 69.8H27.03V70.18H69.88V69.8Z" fill="#FF3A7D"/>
<path d="M69.88 70.18H27.03V70.56H69.88V70.18Z" fill="#FF397E"/>
<path d="M69.88 70.56H27.03V70.94H69.88V70.56Z" fill="#FF387F"/>
<path d="M69.88 70.94H27.03V71.32H69.88V70.94Z" fill="#FF377F"/>
<path d="M69.88 71.32H27.03V71.7H69.88V71.32Z" fill="#FF3680"/>
<path d="M69.88 71.7H27.03V72.08H69.88V71.7Z" fill="#FF3580"/>
<path d="M69.88 72.08H27.03V72.46H69.88V72.08Z" fill="#FF3481"/>
<path d="M69.88 72.46H27.03V72.84H69.88V72.46Z" fill="#FF3381"/>
<path d="M69.88 72.84H27.03V73.22H69.88V72.84Z" fill="#FF3282"/>
<path d="M69.88 73.22H27.03V73.6H69.88V73.22Z" fill="#FF3182"/>
<path d="M69.88 73.6H27.03V73.98H69.88V73.6Z" fill="#FF3083"/>
<path d="M69.88 73.98H27.03V74.36H69.88V73.98Z" fill="#FF2F83"/>
<path d="M69.88 74.36H27.03V74.74H69.88V74.36Z" fill="#FF2E84"/>
<path d="M69.88 74.74H27.03V75.1H69.88V74.74Z" fill="#FF2E84"/>
</g>
<path d="M68.36 28.54C63.04 23.22 55.97 20.29 48.45 20.29C40.93 20.29 33.86 23.22 28.54 28.54C23.22 33.86 20.29 40.93 20.29 48.45C20.29 55.97 23.22 63.04 28.54 68.36C33.86 73.68 40.93 76.61 48.45 76.61C55.97 76.61 63.04 73.68 68.36 68.36C73.68 63.04 76.61 55.97 76.61 48.45C76.61 40.93 73.68 33.86 68.36 28.54ZM48.45 75.1C44.06 75.1 39.92 74.03 36.27 72.15C32.62 70.27 29.45 67.56 27.02 64.28C28.95 61.67 31.32 59.48 33.98 57.76C34.3 58.91 34.6 59.44 34.6 59.44C34.6 59.44 34.38 61.24 35.17 62.6C35.17 62.6 35.31 65.45 36.93 65.03C38.61 64.66 37.64 62.49 36.85 61.85C36.85 61.85 36.88 60.05 36.47 59.06C36.47 59.06 36.76 58.05 36.69 57.41C36.69 57.41 37.39 56.78 37.73 57.41C37.73 57.41 37.79 58.83 38.55 59.78C38.55 59.78 38.55 61.52 39.31 62.47C39.31 62.47 39.42 65.16 41.03 64.61C42.59 64.18 41.24 62.05 40.9 61.8C40.9 61.8 40.9 60.19 40.27 59.3C40.27 59.3 40.36 57.43 39.99 56.58C39.99 56.58 40.12 56.11 40.56 56.55C40.56 56.55 41 57.53 41.83 58.2C41.83 58.2 42.49 59.37 43.16 59.72C43.11 60.52 44.48 62.1 45.48 61.06C46.15 60.37 45.03 58.9 44.2 58.67C44.2 58.67 43.66 57.62 43.06 57.02C43.06 57.02 42.77 55.88 42.3 54.84C42.3 54.84 42.42 54.62 42.5 54.15C44.44 53.7 46.44 53.47 48.46 53.47C50.48 53.47 52.48 53.7 54.42 54.15C54.5 54.61 54.62 54.84 54.62 54.84C54.15 55.88 53.86 57.02 53.86 57.02C53.26 57.62 52.72 58.67 52.72 58.67C51.89 58.9 50.77 60.37 51.44 61.06C52.44 62.1 53.82 60.52 53.76 59.72C54.42 59.37 55.09 58.2 55.09 58.2C55.91 57.54 56.36 56.55 56.36 56.55C56.8 56.11 56.93 56.58 56.93 56.58C56.55 57.43 56.65 59.3 56.65 59.3C56.02 60.19 56.02 61.8 56.02 61.8C55.67 62.05 54.32 64.18 55.89 64.61C57.49 65.16 57.61 62.47 57.61 62.47C58.37 61.52 58.37 59.78 58.37 59.78C59.13 58.83 59.19 57.41 59.19 57.41C59.54 56.78 60.23 57.41 60.23 57.41C60.17 58.04 60.45 59.06 60.45 59.06C60.04 60.04 60.07 61.85 60.07 61.85C59.28 62.49 58.3 64.67 59.99 65.03C61.62 65.45 61.75 62.6 61.75 62.6C62.54 61.24 62.32 59.44 62.32 59.44C62.32 59.44 62.62 58.91 62.94 57.76C65.6 59.48 67.97 61.68 69.9 64.28C65.04 70.84 57.25 75.1 48.47 75.1H48.45ZM42.75 40.99C46.21 43.27 46.47 46.31 45.78 46.8C43.78 48.25 39.65 46.57 38.51 44.77C36.78 42.05 39.24 38.67 42.75 40.99ZM54.16 40.99C57.67 38.67 60.13 42.05 58.4 44.77C57.26 46.57 53.13 48.25 51.13 46.8C50.45 46.31 50.7 43.27 54.16 40.99ZM70.79 62.97C68.7 60.25 66.11 57.92 63.2 56.12C63.2 55.25 62.95 54.18 62.32 53.18C61.7 52.18 60.69 51.27 59.18 50.74C61.35 48.57 63.38 46.51 62.72 40.93C62.19 36.46 58.44 29.09 48.46 29.09C38.48 29.09 34.73 36.46 34.2 40.93C33.54 46.5 35.57 48.57 37.74 50.74C34.71 51.81 33.73 54.39 33.72 56.12C30.81 57.92 28.22 60.25 26.13 62.97C23.4 58.79 21.82 53.8 21.82 48.45C21.82 33.76 33.77 21.8 48.47 21.8C63.17 21.8 75.12 33.75 75.12 48.45C75.12 53.8 73.54 58.79 70.81 62.97H70.79Z" fill="black"/>
<path d="M60.03 67.38C59.81 67.2 59.5 67.24 59.32 67.45C59.14 67.67 59.18 67.98 59.39 68.16C59.86 68.54 60.12 69.01 60.11 69.4C60 69.26 59.88 69.12 59.74 68.99C59.33 68.61 58.8 68.29 58.2 68.08C57.39 67.8 56.57 67.76 55.88 67.94C56.15 67.56 56.77 67.35 57.52 67.42C57.8 67.44 58.04 67.24 58.06 66.96C58.08 66.68 57.88 66.44 57.6 66.42C56.24 66.31 55.15 66.85 54.82 67.82C54.74 68.06 54.71 68.31 54.73 68.57L54.71 68.59L54.77 68.8C54.81 68.98 54.87 69.17 54.96 69.35C55.04 69.51 55.13 69.66 55.24 69.8H55.25C55.25 69.8 55.3 69.88 55.33 69.91V69.93H55.34C55.34 69.93 55.37 69.97 55.39 69.99L55.41 70.01C55.41 70.01 55.45 70.05 55.47 70.07C55.47 70.07 55.51 70.12 55.54 70.14L55.57 70.17C55.57 70.17 55.6 70.2 55.62 70.22C55.64 70.24 55.67 70.27 55.69 70.29C55.73 70.32 55.76 70.35 55.8 70.38V70.4H55.82L55.86 70.43H55.88C55.88 70.43 55.94 70.49 55.97 70.51C55.99 70.53 56.01 70.54 56.03 70.55C56.04 70.56 56.06 70.57 56.07 70.58L56.1 70.6H56.12C56.12 70.6 56.15 70.63 56.17 70.65C56.21 70.68 56.25 70.7 56.29 70.73C56.38 70.78 56.47 70.83 56.56 70.88C56.6 70.9 56.65 70.92 56.7 70.95C56.7 70.95 56.78 70.99 56.82 71.01L56.86 71.03C56.86 71.03 56.93 71.06 56.97 71.07L57.01 71.09C57.01 71.09 57.08 71.11 57.11 71.13H57.13C57.62 71.31 58.11 71.39 58.57 71.39C59.31 71.39 59.97 71.18 60.43 70.79H60.45L60.63 70.64V70.61C60.8 70.42 60.93 70.21 61.02 69.97C61.31 69.12 60.93 68.14 60.03 67.4V67.38Z" fill="black"/>
<path d="M49.53 55.22C49.26 55.16 48.99 55.34 48.93 55.61C48.87 55.88 49.05 56.15 49.32 56.21C50.03 56.36 50.46 56.7 50.46 56.94C50.46 56.99 50.44 57.05 50.4 57.11C49.95 56.79 49.29 56.6 48.58 56.6C47.87 56.6 47.2 56.79 46.76 57.11C46.72 57.05 46.7 56.99 46.7 56.94C46.7 56.74 47 56.44 47.59 56.27C47.86 56.19 48.01 55.91 47.93 55.64C47.85 55.37 47.57 55.22 47.3 55.3C46.31 55.6 45.7 56.22 45.7 56.94C45.7 57.58 46.17 58.12 46.92 58.44C47.36 58.71 47.95 58.86 48.59 58.86C49.23 58.86 49.82 58.71 50.26 58.44C51.01 58.12 51.48 57.58 51.48 56.94C51.48 56.14 50.72 55.46 49.54 55.22H49.53Z" fill="black"/>
<path d="M42.09 67.82C41.76 66.86 40.66 66.31 39.31 66.42C39.03 66.44 38.83 66.69 38.85 66.96C38.87 67.23 39.12 67.44 39.39 67.42C40.14 67.36 40.76 67.56 41.03 67.94C40.75 67.87 40.46 67.83 40.15 67.83C39.69 67.83 39.2 67.91 38.71 68.08C37.9 68.36 37.23 68.83 36.8 69.4C36.79 69.01 37.05 68.54 37.52 68.16C37.74 67.98 37.77 67.67 37.59 67.45C37.41 67.23 37.1 67.2 36.88 67.38C35.97 68.12 35.59 69.1 35.89 69.95C35.97 70.19 36.1 70.41 36.28 70.59V70.62L36.45 70.75L36.47 70.77C36.67 70.93 36.9 71.06 37.17 71.16H37.18C37.18 71.16 37.25 71.19 37.29 71.2H37.32C37.43 71.24 37.54 71.27 37.66 71.29C37.7 71.29 37.73 71.3 37.77 71.31C37.81 71.31 37.84 71.32 37.88 71.33C37.88 71.33 37.95 71.33 37.99 71.34C38.03 71.34 38.07 71.34 38.1 71.34C38.17 71.34 38.25 71.34 38.33 71.34C38.39 71.34 38.45 71.34 38.51 71.34C38.56 71.34 38.62 71.34 38.67 71.33H38.7C38.75 71.33 38.81 71.32 38.86 71.31C38.92 71.31 38.98 71.29 39.04 71.28C39.08 71.28 39.13 71.26 39.17 71.25C39.21 71.25 39.24 71.23 39.28 71.23C39.32 71.23 39.36 71.21 39.4 71.2C39.43 71.2 39.46 71.18 39.49 71.18C39.58 71.15 39.67 71.13 39.76 71.1C39.8 71.09 39.84 71.07 39.87 71.06C39.88 71.06 39.9 71.06 39.91 71.05L39.96 71.03C39.96 71.03 40 71.02 40.01 71.01H40.02C40.02 71.01 40.11 70.97 40.16 70.95C40.16 70.95 40.23 70.91 40.27 70.9H40.28L40.3 70.88C40.3 70.88 40.36 70.85 40.39 70.83H40.41C41.34 70.33 41.98 69.57 42.14 68.78L42.2 68.56L42.18 68.54C42.2 68.29 42.18 68.04 42.09 67.8V67.82Z" fill="black"/>
<path d="M68.39 37.05L69.47 36.61L68.39 36.18L69.01 35.2L67.88 35.48L67.8 34.32L67.06 35.22L66.32 34.32L66.24 35.48L65.11 35.2L65.73 36.18L64.65 36.61L65.73 37.05L65.11 38.03L66.24 37.75L66.32 38.9L67.06 38.01L67.8 38.9L67.88 37.75L69.01 38.03L68.39 37.05Z" fill="white"/>
<path d="M72.78 50.32L71.7 49.89L72.32 48.91L71.19 49.19L71.11 48.03L70.37 48.92L69.63 48.03L69.55 49.19L68.42 48.91L69.04 49.89L67.96 50.32L69.04 50.75L68.42 51.74L69.55 51.45L69.62 52.61L70.37 51.72L71.11 52.61L71.19 51.45L72.32 51.74L71.7 50.75L72.78 50.32Z" fill="white"/>
<path d="M31.17 36.18L31.79 35.2L30.67 35.48L30.59 34.32L29.84 35.22L29.1 34.32L29.02 35.48L27.9 35.2L28.51 36.18L27.44 36.61L28.51 37.05L27.9 38.03L29.02 37.75L29.1 38.9L29.84 38.01L30.59 38.9L30.67 37.75L31.79 38.03L31.17 37.05L32.25 36.61L31.17 36.18Z" fill="white"/>
<path d="M27.87 49.89L28.48 48.91L27.36 49.19L27.28 48.03L26.54 48.92L25.79 48.03L25.71 49.19L24.59 48.91L25.21 49.89L24.13 50.32L25.21 50.75L24.59 51.74L25.71 51.45L25.79 52.61L26.54 51.72L27.28 52.61L27.36 51.45L28.48 51.74L27.87 50.75L28.94 50.32L27.87 49.89Z" fill="white"/>
<path d="M38.98 42.89C38.98 42.89 39.41 40.8 41.21 41.34C43.01 41.88 45.81 44.66 44.96 46.16C44.96 46.16 45.33 45.17 42.3 42.96C40.33 41.29 38.98 42.89 38.98 42.89Z" fill="white"/>
<path d="M57.92 42.89C57.92 42.89 57.49 40.8 55.69 41.34C53.89 41.88 51.09 44.66 51.94 46.16C51.94 46.16 51.57 45.17 54.6 42.96C56.57 41.29 57.92 42.89 57.92 42.89Z" fill="white"/>
<path d="M62.61 58.73C62.71 58.48 62.81 58.15 62.93 57.75C65.59 59.47 67.96 61.67 69.89 64.27C69.7 64.53 69.5 64.78 69.3 65.03C67.47 62.55 65.2 60.41 62.62 58.72L62.61 58.73ZM34.3 58.73C34.2 58.48 34.1 58.15 33.98 57.75C31.32 59.47 28.95 61.67 27.02 64.27C27.21 64.53 27.41 64.78 27.61 65.03C29.44 62.55 31.71 60.41 34.29 58.72L34.3 58.73ZM48.45 54.52C50.51 54.52 52.52 54.76 54.44 55.22C54.49 55.09 54.55 54.96 54.6 54.84C54.6 54.84 54.48 54.62 54.4 54.15C52.46 53.7 50.46 53.47 48.44 53.47C46.42 53.47 44.42 53.7 42.48 54.15C42.4 54.62 42.28 54.84 42.28 54.84C42.34 54.97 42.39 55.1 42.44 55.22C44.36 54.76 46.37 54.52 48.43 54.52H48.45Z" fill="white"/>
</g>
<defs>
<clipPath id="clip0_3_346">
<rect width="96.91" height="96.91" fill="white"/>
</clipPath>
</defs>
</svg>
